Coordinates
version=1
nRows=9
nColumns=42
inDegrees=yes

Units are S.I. units (second, meters, Newtons, ...)
If the header above contains a line with 'inDegrees', this indicates whether rotational values are in degrees (yes) or radians (no).

endheader
time	pelvis_tilt	pelvis_list	pelvis_rotation	pelvis_tx	pelvis_ty	pelvis_tz	hip_flexion_r	hip_adduction_r	hip_rotation_r	knee_angle_r	knee_adduction_r	knee_angle_r_beta	ankle_angle_r	subtalar_angle_r	mtp_angle_r	hip_flexion_l	hip_adduction_l	hip_rotation_l	knee_angle_l	knee_adduction_l	knee_angle_l_beta	ankle_angle_l	subtalar_angle_l	mtp_angle_l	lumbar_extension	lumbar_bending	lumbar_rotation	arm_flex_r	arm_add_r	arm_rot_r	elbow_flex_r	pro_sup_r	wrist_flex_r	wrist_dev_r	arm_flex_l	arm_add_l	arm_rot_l	elbow_flex_l	pro_sup_l	wrist_flex_l	wrist_dev_l
      0.73000000	      1.44935009	     -1.19026721	     -3.35220680	     -1.40331458	      0.95739773	      0.34233278	    -15.06941551	      0.85570250	     -2.76685007	      2.57892932	      4.76590019	      0.04501081	     16.70844207	     14.04255958	     -7.82539610	     20.02091361	     -3.99114442	    -16.21467313	      6.65298708	      0.56655789	      0.11611653	      3.17985170	     15.74416249	     -7.82539610	    -11.35926962	      1.99197839	      4.73524963	      7.22831188	    -18.14913575	      8.61984395	     39.94144113	     90.00000001	      0.00000000	      0.00000000	    -12.28849982	    -12.05375779	      8.12110044	     30.31186771	     90.00000001	      0.00000000	      0.00000000
      0.74000000	      1.28311175	     -1.36530479	     -3.41180704	     -1.39367893	      0.95568524	      0.34255240	    -15.46661330	      1.08789093	     -2.59271760	      2.71095724	      4.63227046	      0.04731513	     16.94060787	     13.92208988	     -7.82217202	     20.16912570	     -4.09277491	    -16.30253001	      5.49128665	      0.68704591	      0.09584103	      3.03356598	     16.82013839	     -7.82217202	    -11.23039868	      1.98735657	      4.83725387	      7.44601991	    -18.17458797	      9.00037408	     39.84355657	     90.00000001	      0.00000000	      0.00000000	    -12.39602372	    -12.05294760	      7.99399490	     30.23506661	     90.00000001	      0.00000000	      0.00000000
      0.75000000	      1.21829841	     -1.51116456	     -3.52947872	     -1.38387660	      0.95418107	      0.34261054	    -15.95305793	      1.20720714	     -2.40580287	      2.89877759	      4.57995873	      0.05059321	     17.12038608	     13.74680171	     -7.81759350	     20.23591888	     -4.14098782	    -16.56162347	      4.75249092	      0.66949276	      0.08294661	      2.94092654	     17.87463572	     -7.81759350	    -11.21524526	      1.95615741	      4.95417884	      7.66142396	    -18.23974384	      9.56002088	     39.72768471	     90.00000001	      0.00000000	      0.00000000	    -12.47687029	    -11.99421838	      7.75888564	     30.14696257	     90.00000001	      0.00000000	      0.00000000
      0.76000000	      1.08627217	     -1.62629370	     -3.55937262	     -1.37399248	      0.95264398	      0.34261410	    -16.36252940	      1.28880149	     -2.40831513	      3.10731173	      4.57146498	      0.05423282	     17.15590943	     13.71192659	     -7.81645770	     20.51306581	     -4.16637476	    -16.67005654	      4.66462847	      0.64680296	      0.08141313	      2.94778096	     17.93498474	     -7.81645770	    -11.12272463	      1.88349305	      5.01843382	      7.71183387	    -18.18522363	      9.65416829	     39.73859608	     90.00000001	      0.00000000	      0.00000000	    -12.53187448	    -12.03075812	      7.71765434	     30.11315356	     90.00000001	      0.00000000	      0.00000000
      0.77000000	      1.30710764	     -1.52138019	     -3.93576550	     -1.36357458	      0.95169308	      0.34258333	    -17.20819092	      0.97697849	     -1.90999155	      3.19887199	      4.57024179	      0.05583085	     17.24629208	     13.46780494	     -7.80287876	     20.23764644	     -4.02780634	    -17.54106704	      4.70221928	      0.51812541	      0.08206921	      2.95084172	     19.41314375	     -7.80287876	    -11.36248987	      1.54578479	      5.24367697	      7.92202621	    -18.42134007	     11.01914926	     39.60654134	     90.00000001	      0.00000000	      0.00000000	    -12.55600703	    -11.82526085	      6.89846065	     29.87028150	     90.00000001	      0.00000000	      0.00000000
      0.78000000	      1.18621019	     -1.59621290	     -4.08522989	     -1.35324352	      0.95042439	      0.34258190	    -17.58790853	      0.95739875	     -1.79686674	      3.52292011	      4.54385875	      0.06148656	     17.22690270	     13.48430118	     -7.80139248	     20.34502935	     -4.00896865	    -17.35242640	      5.02328796	      0.39868117	      0.08767291	      2.83731139	     19.38573162	     -7.80139248	    -11.24570579	      1.41570655	      5.39966917	      7.86800422	    -18.33150176	     11.07730629	     39.54985199	     90.00000001	      0.00000000	      0.00000000	    -12.58708223	    -11.86081351	      6.87713361	     29.82071807	     90.00000001	      0.00000000	      0.00000000
      0.79000000	      1.31232463	     -1.51741200	     -4.36777690	     -1.34277315	      0.94966560	      0.34247731	    -18.23910886	      0.66767041	     -1.50733457	      3.79709135	      4.54285189	      0.06627175	     17.24939947	     13.60954246	     -7.79747524	     20.19193082	     -3.85290720	    -17.50167401	      5.64850741	      0.20548760	      0.09858505	      2.35639414	     18.99340517	     -7.79747524	    -11.39421825	      1.09558535	      5.61074737	      7.92336170	    -18.27100758	     11.34794894	     39.26524145	     90.00000001	      0.00000000	      0.00000000	    -12.44316156	    -11.81947963	      6.82999423	     29.44045777	     90.00000001	      0.00000000	      0.00000000
      0.80000000	      1.47740552	     -1.25570422	     -4.74698360	     -1.33194571	      0.94916282	      0.34235945	    -18.88133127	      0.08823792	     -1.23937003	      4.14828518	      4.63829935	      0.07240123	     17.11616706	     13.72032777	     -7.79181788	     19.82393830	     -3.50669859	    -17.56429410	      6.17721069	      0.03126608	      0.10781267	      1.66332661	     18.39778320	     -7.79181788	    -11.53702551	      0.55625085	      5.89294208	      7.80701042	    -18.20102139	     11.68264467	     39.11451002	     90.00000001	      0.00000000	      0.00000000	    -12.31577667	    -11.77732078	      6.68322660	     29.14243035	     90.00000001	      0.00000000	      0.00000000
      0.81000000	      1.47725307	     -1.16594009	     -4.97874146	     -1.32125489	      0.94865081	      0.34209309	    -19.27692948	     -0.21358194	     -0.96322002	      4.65173403	      4.62712614	      0.08118807	     16.91155922	     13.77968659	     -7.78928231	     19.64788897	     -3.27243479	    -17.25325671	      6.75992173	     -0.23682704	      0.11798289	      1.08065994	     18.12206630	     -7.78928231	    -11.53577265	      0.23398308	      6.05380648	      7.64163871	    -18.12405136	     11.78066718	     39.01234441	     90.00000001	      0.00000000	      0.00000000	    -12.22050177	    -11.79301485	      6.64353825	     29.02948888	     90.00000001	      0.00000000	      0.00000000
